# xmcd
# Track frame offsets:
# 150
# 18578
# 33182
# 48921
# 66088
# 82768
# 99601
# 119276
# 143590
# 160376
# 175882
# 193642
# 212722
# 227343
# 240683
# 256638
# 277456
# 292415
# 310472
# 326590
#
# Disc length: 4576 seconds
# Revision: 0
# Processed by: cddbd v1.5.2PL0 Copyright (c) Steve Scherf et al.
# Submitted via: VisiTrax 2.11.1.266 - For more info visit www.synapsa.com
#
DISCID=1f11de14
DTITLE=Various Artist - Prime Cuts HP200937
DYEAR=2009
DGENRE=DJ Service
TTITLE0=Michael Buble - Haven't You Met
TTITLE1=Ingrid Michaelson - Maybe [Album Version]
TTITLE2=Lady Gaga - Paparazzi[Radio Edit]
TTITLE3=Nickelback - Never Gonna Be Alone
TTITLE4=Down With Webster - Rich Girls[Album Version]
TTITLE5=Sean Paul - Press It Up
TTITLE6=Birdman feat. Drake and Lil Wayne - Money to Blow[Edited Version]
TTITLE7=Lil Drake feat. Kanye West Wayne and Eminem - Forever[Radio Edit]
TTITLE8=Carrie Underwood - Cowboy Casanova[Single Edit]
TTITLE9=Phil Vassar - Everywhere I Go
TTITLE10=Bomshel - 19 and Crazy
TTITLE11=Slipknot - Snuff[Radio Edit]
TTITLE12=Three Days Grace - Break
TTITLE13=Adelitas Way - Invincible
TTITLE14=Bravery - Slow Poison
TTITLE15=Cobra Starship feat. Leighton Meester - Good Girls Go BAd[Cash Cash Re
TTITLE15=mix]
TTITLE16=Mariah Carey - Obsessed[Jump Smokers Remix]
TTITLE17=Madonna - Celebration[Benny Benassi Edit]
TTITLE18=FM Static - Take Me As I Am[Album Version]
TTITLE19=Phillip Larue - Why
EXTD=
EXTT0=
EXTT1=
EXTT2=
EXTT3=
EXTT4=
EXTT5=
EXTT6=
EXTT7=
EXTT8=
EXTT9=
EXTT10=
EXTT11=
EXTT12=
EXTT13=
EXTT14=
EXTT15=
EXTT16=
EXTT17=
EXTT18=
EXTT19=
PLAYORDER=
